<mxfile host="65bd71144e">
    <diagram id="hNPNWWR4kDe_yBffyqoT" name="Page-1">
        <mxGraphModel dx="338" dy="240" grid="1" gridSize="10" guides="1" tooltips="1" connect="1" arrows="1" fold="1" page="1" pageScale="1" pageWidth="850" pageHeight="1100" math="0" shadow="0">
            <root>
                <mxCell id="0"/>
                <mxCell id="1" parent="0"/>
                <mxCell id="16" style="edgeStyle=none;html=1;rounded=0;endArrow=none;endFill=0;" parent="1" source="2" target="3" edge="1">
                    <mxGeometry relative="1" as="geometry">
                        <Array as="points">
                            <mxPoint x="120" y="410"/>
                        </Array>
                    </mxGeometry>
                </mxCell>
                <mxCell id="18" style="edgeStyle=none;html=1;endArrow=none;endFill=0;" parent="1" source="2" target="14" edge="1">
                    <mxGeometry relative="1" as="geometry"/>
                </mxCell>
                <mxCell id="27" style="edgeStyle=none;html=1;rounded=0;endArrow=none;endFill=0;" parent="1" source="2" target="26" edge="1">
                    <mxGeometry relative="1" as="geometry">
                        <Array as="points"/>
                    </mxGeometry>
                </mxCell>
                <mxCell id="31" style="edgeStyle=none;html=1;endArrow=none;endFill=0;" parent="1" source="2" target="29" edge="1">
                    <mxGeometry relative="1" as="geometry"/>
                </mxCell>
                <mxCell id="42" style="edgeStyle=none;html=1;endArrow=none;endFill=0;jumpStyle=none;jumpSize=6;flowAnimation=0;shadow=0;" parent="1" source="2" target="19" edge="1">
                    <mxGeometry relative="1" as="geometry"/>
                </mxCell>
                <mxCell id="2" value="Admin" style="shape=umlActor;html=1;verticalLabelPosition=bottom;verticalAlign=top;align=center;" parent="1" vertex="1">
                    <mxGeometry x="50" y="190" width="30" height="60" as="geometry"/>
                </mxCell>
                <mxCell id="22" style="edgeStyle=none;html=1;endArrow=none;endFill=0;rounded=0;" parent="1" source="7" target="3" edge="1">
                    <mxGeometry relative="1" as="geometry">
                        <Array as="points">
                            <mxPoint x="710" y="380"/>
                        </Array>
                    </mxGeometry>
                </mxCell>
                <mxCell id="23" style="edgeStyle=none;html=1;endArrow=none;endFill=0;" parent="1" source="7" target="13" edge="1">
                    <mxGeometry relative="1" as="geometry"/>
                </mxCell>
                <mxCell id="30" style="edgeStyle=none;html=1;endArrow=none;endFill=0;rounded=0;" parent="1" source="7" target="29" edge="1">
                    <mxGeometry relative="1" as="geometry">
                        <mxPoint x="703.3920442205517" y="149.35350473967628" as="targetPoint"/>
                        <Array as="points">
                            <mxPoint x="670" y="150"/>
                        </Array>
                    </mxGeometry>
                </mxCell>
                <mxCell id="95" style="edgeStyle=none;html=1;endArrow=none;endFill=0;rounded=0;" parent="1" source="7" target="15" edge="1">
                    <mxGeometry relative="1" as="geometry">
                        <Array as="points">
                            <mxPoint x="750" y="480"/>
                        </Array>
                    </mxGeometry>
                </mxCell>
                <mxCell id="96" style="edgeStyle=none;html=1;endArrow=none;endFill=0;rounded=0;" parent="1" source="7" target="53" edge="1">
                    <mxGeometry relative="1" as="geometry">
                        <Array as="points">
                            <mxPoint x="780" y="520"/>
                        </Array>
                    </mxGeometry>
                </mxCell>
                <mxCell id="7" value="Asesi" style="shape=umlActor;html=1;verticalLabelPosition=bottom;verticalAlign=top;align=center;" parent="1" vertex="1">
                    <mxGeometry x="790" y="380" width="30" height="60" as="geometry"/>
                </mxCell>
                <mxCell id="17" style="edgeStyle=none;html=1;endArrow=none;endFill=0;rounded=0;" parent="1" source="8" target="3" edge="1">
                    <mxGeometry relative="1" as="geometry">
                        <Array as="points">
                            <mxPoint x="120" y="430"/>
                        </Array>
                    </mxGeometry>
                </mxCell>
                <mxCell id="21" style="edgeStyle=none;html=1;endArrow=none;endFill=0;" parent="1" source="8" target="19" edge="1">
                    <mxGeometry relative="1" as="geometry"/>
                </mxCell>
                <mxCell id="57" style="edgeStyle=none;html=1;rounded=0;endArrow=none;endFill=0;" parent="1" source="8" target="55" edge="1">
                    <mxGeometry relative="1" as="geometry">
                        <Array as="points">
                            <mxPoint x="120" y="590"/>
                        </Array>
                    </mxGeometry>
                </mxCell>
                <mxCell id="97" style="edgeStyle=none;rounded=0;html=1;endArrow=none;endFill=0;" parent="1" source="8" target="54" edge="1">
                    <mxGeometry relative="1" as="geometry">
                        <Array as="points">
                            <mxPoint x="120" y="560"/>
                        </Array>
                    </mxGeometry>
                </mxCell>
                <mxCell id="98" style="edgeStyle=none;rounded=0;html=1;endArrow=none;endFill=0;" parent="1" source="8" target="32" edge="1">
                    <mxGeometry relative="1" as="geometry">
                        <Array as="points">
                            <mxPoint x="120" y="520"/>
                        </Array>
                    </mxGeometry>
                </mxCell>
                <mxCell id="8" value="Asesor" style="shape=umlActor;html=1;verticalLabelPosition=bottom;verticalAlign=top;align=center;" parent="1" vertex="1">
                    <mxGeometry x="50" y="475" width="30" height="60" as="geometry"/>
                </mxCell>
                <mxCell id="80" value="&lt;span style=&quot;font-weight: 400;&quot;&gt;Sistem Informasi LSP UNTAN&lt;/span&gt;" style="swimlane;whiteSpace=wrap;html=1;" parent="1" vertex="1">
                    <mxGeometry x="120" y="40" width="665" height="750" as="geometry">
                        <mxRectangle x="115" y="40" width="140" height="30" as="alternateBounds"/>
                    </mxGeometry>
                </mxCell>
                <mxCell id="47" value="Mengkonfirmasi Pembayaran" style="ellipse;whiteSpace=wrap;html=1;" parent="80" vertex="1">
                    <mxGeometry x="430" y="200" width="140" height="70" as="geometry"/>
                </mxCell>
                <mxCell id="81" value="Menambah Sertifikasi" style="ellipse;whiteSpace=wrap;html=1;" parent="80" vertex="1">
                    <mxGeometry x="400" y="280" width="140" height="70" as="geometry"/>
                </mxCell>
                <mxCell id="70" value="Melihat Hasil &lt;br&gt;Asesmen" style="ellipse;whiteSpace=wrap;html=1;" parent="80" vertex="1">
                    <mxGeometry x="185" y="670" width="140" height="70" as="geometry"/>
                </mxCell>
                <mxCell id="13" value="Mendaftar Sertifikasi" style="ellipse;whiteSpace=wrap;html=1;" parent="80" vertex="1">
                    <mxGeometry x="485" y="370" width="140" height="70" as="geometry"/>
                </mxCell>
                <mxCell id="15" value="Membayar Biaya Asesmen" style="ellipse;whiteSpace=wrap;html=1;" parent="80" vertex="1">
                    <mxGeometry x="380" y="470" width="140" height="70" as="geometry"/>
                </mxCell>
                <mxCell id="61" style="edgeStyle=none;rounded=0;html=1;endArrow=open;endFill=0;" parent="80" source="15" target="13" edge="1">
                    <mxGeometry relative="1" as="geometry"/>
                </mxCell>
                <mxCell id="86" value="&amp;lt;&amp;lt;include&amp;gt;&amp;gt;" style="edgeLabel;html=1;align=center;verticalAlign=middle;resizable=0;points=[];" parent="61" vertex="1" connectable="0">
                    <mxGeometry x="0.3095" y="-1" relative="1" as="geometry">
                        <mxPoint as="offset"/>
                    </mxGeometry>
                </mxCell>
                <mxCell id="72" value="Melihat &lt;br&gt;Tugas Asesmen" style="ellipse;whiteSpace=wrap;html=1;fillColor=none;" parent="80" vertex="1">
                    <mxGeometry x="510" y="670" width="140" height="70" as="geometry"/>
                </mxCell>
                <mxCell id="99" style="edgeStyle=none;rounded=0;html=1;endArrow=open;endFill=0;" parent="80" source="55" target="54" edge="1">
                    <mxGeometry relative="1" as="geometry"/>
                </mxCell>
                <mxCell id="100" value="&amp;lt;&amp;lt;include&amp;gt;&amp;gt;" style="edgeLabel;html=1;align=center;verticalAlign=middle;resizable=0;points=[];" parent="99" vertex="1" connectable="0">
                    <mxGeometry x="-0.1266" y="-1" relative="1" as="geometry">
                        <mxPoint as="offset"/>
                    </mxGeometry>
                </mxCell>
                <mxCell id="55" value="Memberikan Tugas&lt;br&gt;Asesmen" style="ellipse;whiteSpace=wrap;html=1;" parent="80" vertex="1">
                    <mxGeometry x="10" y="580" width="140" height="70" as="geometry"/>
                </mxCell>
                <mxCell id="71" style="edgeStyle=none;html=1;endArrow=block;endFill=0;" parent="80" source="70" target="55" edge="1">
                    <mxGeometry relative="1" as="geometry"/>
                </mxCell>
                <mxCell id="89" style="edgeStyle=none;html=1;endArrow=block;endFill=0;" parent="80" source="88" target="55" edge="1">
                    <mxGeometry relative="1" as="geometry"/>
                </mxCell>
                <mxCell id="88" value="Menambah Tugas Asesmen" style="ellipse;whiteSpace=wrap;html=1;" parent="80" vertex="1">
                    <mxGeometry x="20" y="670" width="140" height="70" as="geometry"/>
                </mxCell>
                <mxCell id="53" value="Mengerjakan &lt;br&gt;Asesmen" style="ellipse;whiteSpace=wrap;html=1;fillColor=none;" parent="80" vertex="1">
                    <mxGeometry x="435" y="580" width="140" height="70" as="geometry"/>
                </mxCell>
                <mxCell id="64" style="edgeStyle=none;rounded=0;html=1;endArrow=open;endFill=0;" parent="80" source="53" target="15" edge="1">
                    <mxGeometry relative="1" as="geometry"/>
                </mxCell>
                <mxCell id="91" value="&amp;lt;&amp;lt;include&amp;gt;&amp;gt;" style="edgeLabel;html=1;align=center;verticalAlign=middle;resizable=0;points=[];" parent="64" vertex="1" connectable="0">
                    <mxGeometry x="-0.1251" y="-1" relative="1" as="geometry">
                        <mxPoint as="offset"/>
                    </mxGeometry>
                </mxCell>
                <mxCell id="73" style="edgeStyle=none;html=1;endArrow=block;endFill=0;" parent="80" source="72" target="53" edge="1">
                    <mxGeometry relative="1" as="geometry"/>
                </mxCell>
                <mxCell id="74" value="Menginputkan Hasil Asesmen" style="ellipse;whiteSpace=wrap;html=1;fillColor=none;" parent="80" vertex="1">
                    <mxGeometry x="345" y="670" width="140" height="70" as="geometry"/>
                </mxCell>
                <mxCell id="75" style="edgeStyle=none;html=1;endArrow=block;endFill=0;" parent="80" source="74" target="53" edge="1">
                    <mxGeometry relative="1" as="geometry"/>
                </mxCell>
                <mxCell id="3" value="Login" style="ellipse;whiteSpace=wrap;html=1;" parent="80" vertex="1">
                    <mxGeometry x="262.5" y="370" width="140" height="70" as="geometry"/>
                </mxCell>
                <mxCell id="59" style="edgeStyle=none;html=1;endArrow=open;endFill=0;" parent="80" source="13" target="3" edge="1">
                    <mxGeometry relative="1" as="geometry"/>
                </mxCell>
                <mxCell id="85" value="&amp;lt;&amp;lt;include&amp;gt;&amp;gt;" style="edgeLabel;html=1;align=center;verticalAlign=middle;resizable=0;points=[];" parent="59" vertex="1" connectable="0">
                    <mxGeometry x="-0.1691" relative="1" as="geometry">
                        <mxPoint as="offset"/>
                    </mxGeometry>
                </mxCell>
                <mxCell id="54" value="Memberi &lt;br&gt;Rekomendasi &lt;br&gt;Asesmen" style="ellipse;whiteSpace=wrap;html=1;" parent="80" vertex="1">
                    <mxGeometry x="240" y="560" width="140" height="70" as="geometry"/>
                </mxCell>
                <mxCell id="32" value="Memberi &lt;br&gt;Rekomendasi Pra-asesmen" style="ellipse;whiteSpace=wrap;html=1;" parent="80" vertex="1">
                    <mxGeometry x="210" y="450" width="140" height="70" as="geometry"/>
                </mxCell>
                <mxCell id="68" style="edgeStyle=none;html=1;endArrow=open;endFill=0;" parent="80" source="54" target="32" edge="1">
                    <mxGeometry relative="1" as="geometry"/>
                </mxCell>
                <mxCell id="92" value="&amp;lt;&amp;lt;include&amp;gt;&amp;gt;" style="edgeLabel;html=1;align=center;verticalAlign=middle;resizable=0;points=[];" parent="68" vertex="1" connectable="0">
                    <mxGeometry x="-0.1914" y="1" relative="1" as="geometry">
                        <mxPoint as="offset"/>
                    </mxGeometry>
                </mxCell>
                <mxCell id="19" value="Memverifikasi&lt;br&gt;Form APL1 &amp;amp; 2" style="ellipse;whiteSpace=wrap;html=1;" parent="80" vertex="1">
                    <mxGeometry x="10" y="400" width="140" height="70" as="geometry"/>
                </mxCell>
                <mxCell id="58" style="edgeStyle=none;html=1;endArrow=open;endFill=0;" parent="80" source="19" target="3" edge="1">
                    <mxGeometry relative="1" as="geometry"/>
                </mxCell>
                <mxCell id="84" value="&amp;lt;&amp;lt;include&amp;gt;&amp;gt;" style="edgeLabel;html=1;align=center;verticalAlign=middle;resizable=0;points=[];" parent="58" vertex="1" connectable="0">
                    <mxGeometry x="0.2048" y="3" relative="1" as="geometry">
                        <mxPoint as="offset"/>
                    </mxGeometry>
                </mxCell>
                <mxCell id="63" style="edgeStyle=none;rounded=0;html=1;endArrow=open;endFill=0;" parent="80" source="32" target="19" edge="1">
                    <mxGeometry relative="1" as="geometry"/>
                </mxCell>
                <mxCell id="90" value="&amp;lt;&amp;lt;include&amp;gt;&amp;gt;" style="edgeLabel;html=1;align=center;verticalAlign=middle;resizable=0;points=[];" parent="63" vertex="1" connectable="0">
                    <mxGeometry x="-0.2525" y="-2" relative="1" as="geometry">
                        <mxPoint as="offset"/>
                    </mxGeometry>
                </mxCell>
                <mxCell id="26" value="Melihat Laporan" style="ellipse;whiteSpace=wrap;html=1;" parent="80" vertex="1">
                    <mxGeometry x="305" y="120" width="140" height="70" as="geometry"/>
                </mxCell>
                <mxCell id="69" style="edgeStyle=none;html=1;endArrow=open;endFill=0;" parent="80" source="26" target="3" edge="1">
                    <mxGeometry relative="1" as="geometry"/>
                </mxCell>
                <mxCell id="76" value="&amp;lt;&amp;lt;include&amp;gt;&amp;gt;" style="edgeLabel;html=1;align=center;verticalAlign=middle;resizable=0;points=[];" parent="69" vertex="1" connectable="0">
                    <mxGeometry x="0.0632" y="-1" relative="1" as="geometry">
                        <mxPoint as="offset"/>
                    </mxGeometry>
                </mxCell>
                <mxCell id="29" value="Registrasi Akun" style="ellipse;whiteSpace=wrap;html=1;" parent="80" vertex="1">
                    <mxGeometry x="210" y="50" width="140" height="70" as="geometry"/>
                </mxCell>
                <mxCell id="49" value="Menginformasikan Jadwal Asesmen" style="ellipse;whiteSpace=wrap;html=1;" parent="80" vertex="1">
                    <mxGeometry x="140" y="310" width="140" height="70" as="geometry"/>
                </mxCell>
                <mxCell id="48" value="Menginformasikan Jadwal Pra-asesmen" style="ellipse;whiteSpace=wrap;html=1;" parent="80" vertex="1">
                    <mxGeometry x="30" y="240" width="140" height="70" as="geometry"/>
                </mxCell>
                <mxCell id="14" value="Mengelola Sertifikasi" style="ellipse;whiteSpace=wrap;html=1;" parent="80" vertex="1">
                    <mxGeometry x="185" y="190" width="140" height="70" as="geometry"/>
                </mxCell>
                <mxCell id="62" style="edgeStyle=none;rounded=0;html=1;endArrow=open;endFill=0;" parent="80" source="14" target="3" edge="1">
                    <mxGeometry relative="1" as="geometry"/>
                </mxCell>
                <mxCell id="77" value="&amp;lt;&amp;lt;include&amp;gt;&amp;gt;" style="edgeLabel;html=1;align=center;verticalAlign=middle;resizable=0;points=[];" parent="62" vertex="1" connectable="0">
                    <mxGeometry x="-0.1523" y="1" relative="1" as="geometry">
                        <mxPoint as="offset"/>
                    </mxGeometry>
                </mxCell>
                <mxCell id="65" style="edgeStyle=none;rounded=0;html=1;endArrow=block;endFill=0;" parent="80" source="47" target="14" edge="1">
                    <mxGeometry relative="1" as="geometry"/>
                </mxCell>
                <mxCell id="66" style="edgeStyle=none;rounded=0;html=1;endArrow=block;endFill=0;" parent="80" source="48" target="14" edge="1">
                    <mxGeometry relative="1" as="geometry"/>
                </mxCell>
                <mxCell id="67" style="edgeStyle=none;html=1;endArrow=block;endFill=0;" parent="80" source="49" target="14" edge="1">
                    <mxGeometry relative="1" as="geometry"/>
                </mxCell>
                <mxCell id="82" style="edgeStyle=none;html=1;endArrow=block;endFill=0;" parent="80" source="81" target="14" edge="1">
                    <mxGeometry relative="1" as="geometry"/>
                </mxCell>
            </root>
        </mxGraphModel>
    </diagram>
</mxfile>